PathFileType	4	(X/Y/Z)	 1.9Hzhigh3min.trc
DataRate	CameraRate	NumFrames	NumMarkers	Units	OrigDataRate	OrigDataStartFrame	OrigNumFrames
200	200	10	39	m	200	626	1000
Frame#	Time	C7			LSH			RSH			MAN			RASI			LASI			HIPR			HIPL			RPSI			LPSI			COX			RTHI1			RTHI2			RTHI3			RTHI4			RLKN			RMKN			RSHA1			RSHA2			RSHA3			RSHA4			RHEEL			RMET5			RMET1			RTOE			LTHI1			LTHI2			LTHI3			LTHI4			LLKN			LMKN			LSHA1			LSHA2			LSHA3			LSHA4			LHEEL			LMET5			LMET1			LTOE			
		X1	Y1	Z1	X2	Y2	Z2	X3	Y3	Z3	X4	Y4	Z4	X5	Y5	Z5	X6	Y6	Z6	X7	Y7	Z7	X8	Y8	Z8	X9	Y9	Z9	X10	Y10	Z10	X11	Y11	Z11	X12	Y12	Z12	X13	Y13	Z13	X14	Y14	Z14	X15	Y15	Z15	X16	Y16	Z16	X17	Y17	Z17	X18	Y18	Z18	X19	Y19	Z19	X20	Y20	Z20	X21	Y21	Z21	X22	Y22	Z22	X23	Y23	Z23	X24	Y24	Z24	X25	Y25	Z25	X26	Y26	Z26	X27	Y27	Z27	X28	Y28	Z28	X29	Y29	Z29	X30	Y30	Z30	X31	Y31	Z31	X32	Y32	Z32	X33	Y33	Z33	X34	Y34	Z34	X35	Y35	Z35	X36	Y36	Z36	X37	Y37	Z37	X38	Y38	Z38	X39	Y39	Z39	
626	3.1300	-0.305600	1.486414	-0.516535	-0.269596	1.487600	-0.697179	-0.274793	1.487503	-0.341722	-0.151356	1.448420	-0.521794	-0.173183	0.962895	-0.408357	-0.176910	0.965228	-0.639593	-0.239312	1.037234	-0.356115	-0.227633	1.027355	-0.685510	-0.350643	1.025136	-0.483798	-0.353935	1.024057	-0.551987	-0.353851	1.023213	-0.520380	-0.249365	0.787290	-0.321873	-0.230302	0.731492	-0.314228	-0.167715	0.750338	-0.319274	-0.180516	0.809566	-0.328189	-0.184659	0.474156	-0.345034	-0.167759	0.466538	-0.455993	-0.285846	0.363197	-0.317440	-0.304469	0.326636	-0.329492	-0.247269	0.306368	-0.333293	-0.232749	0.343383	-0.325457	-0.417366	0.096144	-0.416992	-0.260124	0.034980	-0.350507	-0.206027	0.046147	-0.415870	-0.182794	0.036578	-0.414365	-0.249670	0.754906	-0.728040	-0.227285	0.697312	-0.732791	-0.165300	0.715516	-0.732648	-0.178558	0.774246	-0.727561	-0.187930	0.470330	-0.701753	-0.161118	0.462960	-0.600287	-0.299291	0.349146	-0.711003	-0.316550	0.313262	-0.702089	-0.257714	0.291450	-0.705914	-0.247744	0.333484	-0.714962	-0.410163	0.088221	-0.605956	-0.264897	0.036130	-0.705621	-0.201489	0.047464	-0.641374	-0.177186	0.036689	-0.652864	
627	3.1350	-0.306478	1.493629	-0.516534	-0.270244	1.495316	-0.696800	-0.275736	1.495108	-0.341953	-0.152426	1.456475	-0.521690	-0.171875	0.970354	-0.408719	-0.175983	0.972960	-0.639950	-0.237318	1.044991	-0.356433	-0.226403	1.035295	-0.685542	-0.349413	1.032326	-0.483625	-0.352787	1.031325	-0.551874	-0.352697	1.030479	-0.520259	-0.249758	0.794787	-0.322020	-0.231370	0.738744	-0.314337	-0.168569	0.756835	-0.319171	-0.180628	0.816228	-0.328130	-0.189307	0.480734	-0.344691	-0.171955	0.472609	-0.455686	-0.289475	0.368683	-0.317142	-0.307535	0.331810	-0.328990	-0.250049	0.312283	-0.332113	-0.236090	0.349539	-0.324454	-0.415834	0.100295	-0.415423	-0.259662	0.035078	-0.350259	-0.205977	0.046217	-0.415510	-0.182897	0.036584	-0.414327	-0.250502	0.762147	-0.727817	-0.228690	0.704295	-0.732381	-0.166529	0.721886	-0.732500	-0.179204	0.780770	-0.727638	-0.192689	0.476877	-0.701136	-0.165067	0.469125	-0.600046	-0.302961	0.354653	-0.710166	-0.319813	0.318602	-0.701406	-0.260828	0.297335	-0.706127	-0.251350	0.339529	-0.714952	-0.408662	0.092624	-0.606411	-0.264546	0.036424	-0.705215	-0.201303	0.047473	-0.641447	-0.177129	0.036680	-0.652669	
628	3.1400	-0.307337	1.500806	-0.516555	-0.270848	1.502986	-0.696417	-0.276653	1.502687	-0.342201	-0.153503	1.464471	-0.521580	-0.170626	0.977882	-0.409045	-0.175126	0.980769	-0.640363	-0.235380	1.052741	-0.356745	-0.225235	1.043311	-0.685607	-0.348211	1.039575	-0.483444	-0.351649	1.038692	-0.551747	-0.351556	1.037841	-0.520129	-0.250087	0.802304	-0.322163	-0.232339	0.746037	-0.314457	-0.169340	0.763424	-0.319108	-0.180702	0.822963	-0.328097	-0.193818	0.487406	-0.344438	-0.175973	0.478738	-0.455403	-0.292933	0.374329	-0.316817	-0.310451	0.337121	-0.328466	-0.252693	0.318362	-0.330908	-0.239299	0.355858	-0.323432	-0.414082	0.104655	-0.413678	-0.259107	0.035227	-0.349955	-0.205928	0.046302	-0.415121	-0.183006	0.036598	-0.414287	-0.251389	0.769424	-0.727552	-0.230136	0.711337	-0.731931	-0.167811	0.728346	-0.732409	-0.179925	0.787375	-0.727785	-0.197354	0.483543	-0.700548	-0.168796	0.475512	-0.599898	-0.306514	0.360264	-0.709389	-0.322914	0.324040	-0.700793	-0.263783	0.303365	-0.706418	-0.254835	0.345727	-0.715019	-0.406951	0.097250	-0.607009	-0.264134	0.036727	-0.704908	-0.201093	0.047491	-0.641583	-0.177036	0.036680	-0.652484	
629	3.1450	-0.308178	1.507920	-0.516587	-0.271411	1.510576	-0.696025	-0.277545	1.510211	-0.342460	-0.154571	1.472368	-0.521459	-0.169439	0.985428	-0.409336	-0.174328	0.988594	-0.640818	-0.233530	1.060471	-0.357056	-0.224155	1.051384	-0.685688	-0.347039	1.046857	-0.483265	-0.350518	1.046121	-0.551611	-0.350415	1.045253	-0.519990	-0.250355	0.809803	-0.322294	-0.233210	0.753328	-0.314583	-0.170030	0.770055	-0.319081	-0.180740	0.829728	-0.328086	-0.198177	0.494136	-0.344267	-0.179799	0.484922	-0.455154	-0.296258	0.380081	-0.316495	-0.313194	0.342562	-0.327924	-0.255158	0.324569	-0.329694	-0.242343	0.362299	-0.322425	-0.412127	0.109227	-0.411835	-0.258493	0.035406	-0.349619	-0.205838	0.046414	-0.414749	-0.183138	0.036662	-0.414149	-0.252316	0.776717	-0.727249	-0.231596	0.718416	-0.731447	-0.169126	0.734875	-0.732359	-0.180710	0.794042	-0.727979	-0.201888	0.490260	-0.699985	-0.172406	0.482087	-0.599766	-0.309897	0.365929	-0.708664	-0.325799	0.329505	-0.700245	-0.266522	0.309503	-0.706788	-0.258150	0.352039	-0.715133	-0.405008	0.102014	-0.607699	-0.263680	0.037034	-0.704676	-0.200870	0.047522	-0.641799	-0.176918	0.036683	-0.652330	
630	3.1500	-0.309003	1.514937	-0.516625	-0.271928	1.518062	-0.695624	-0.278399	1.517643	-0.342727	-0.155620	1.480144	-0.521320	-0.168313	0.992942	-0.409593	-0.173581	0.996387	-0.641299	-0.231791	1.068165	-0.357361	-0.223205	1.059478	-0.685766	-0.345897	1.054153	-0.483095	-0.349404	1.053570	-0.551470	-0.349287	1.052682	-0.519852	-0.250571	0.817252	-0.322416	-0.233988	0.760577	-0.314715	-0.170651	0.776697	-0.319088	-0.180750	0.836484	-0.328090	-0.202361	0.500890	-0.344171	-0.183436	0.491155	-0.454960	-0.299397	0.385871	-0.316201	-0.315687	0.348020	-0.327311	-0.257407	0.330880	-0.328487	-0.245181	0.368842	-0.321457	-0.409940	0.113948	-0.409915	-0.257826	0.035635	-0.349243	-0.205687	0.046515	-0.414395	-0.183277	0.036717	-0.413965	-0.253268	0.784007	-0.726913	-0.233050	0.725514	-0.730943	-0.170453	0.741458	-0.732335	-0.181535	0.800746	-0.728192	-0.206261	0.496987	-0.699449	-0.175955	0.488805	-0.599564	-0.313063	0.371608	-0.707976	-0.328431	0.334967	-0.699756	-0.269009	0.315710	-0.707222	-0.261253	0.358427	-0.715275	-0.402851	0.106961	-0.608504	-0.263189	0.037365	-0.704546	-0.200633	0.047605	-0.642123	-0.176787	0.036691	-0.652234	
631	3.1550	-0.309799	1.521825	-0.516670	-0.272401	1.525431	-0.695222	-0.279218	1.524959	-0.342994	-0.156643	1.487767	-0.521163	-0.167231	1.000364	-0.409817	-0.172872	1.004089	-0.641786	-0.230184	1.075806	-0.357653	-0.222397	1.067572	-0.685825	-0.344790	1.061445	-0.482949	-0.348307	1.061002	-0.551331	-0.348157	1.060096	-0.519718	-0.250748	0.824624	-0.322530	-0.234707	0.767782	-0.314815	-0.171220	0.783315	-0.319115	-0.180738	0.843211	-0.328113	-0.206366	0.507636	-0.344138	-0.186911	0.497428	-0.454840	-0.302305	0.391706	-0.315878	-0.317891	0.353480	-0.326680	-0.259398	0.337248	-0.327297	-0.247768	0.375437	-0.320549	-0.407551	0.118836	-0.408014	-0.257126	0.035917	-0.348857	-0.205503	0.046680	-0.413948	-0.183383	0.036783	-0.413750	-0.254222	0.791283	-0.726560	-0.234477	0.732619	-0.730433	-0.171764	0.748079	-0.732317	-0.182378	0.807472	-0.728397	-0.210469	0.503690	-0.698942	-0.179496	0.495606	-0.599248	-0.315982	0.377280	-0.707313	-0.330771	0.340408	-0.699321	-0.271214	0.321967	-0.707722	-0.264110	0.364869	-0.715434	-0.400463	0.112047	-0.609384	-0.262692	0.037728	-0.704513	-0.200384	0.047767	-0.642560	-0.176653	0.036705	-0.652183	
632	3.1600	-0.310533	1.528583	-0.516696	-0.272833	1.532655	-0.694817	-0.279996	1.532131	-0.343255	-0.157611	1.495208	-0.521001	-0.166195	1.007652	-0.410010	-0.172193	1.011656	-0.642259	-0.228729	1.083378	-0.357924	-0.221737	1.075616	-0.685854	-0.343711	1.068711	-0.482813	-0.347242	1.068380	-0.551195	-0.347052	1.067464	-0.519597	-0.250894	0.831890	-0.322637	-0.235382	0.774917	-0.314875	-0.171753	0.789881	-0.319155	-0.180714	0.849858	-0.328153	-0.210196	0.514350	-0.344168	-0.190271	0.503722	-0.454800	-0.304967	0.397519	-0.315554	-0.319861	0.358930	-0.326088	-0.261122	0.343663	-0.326160	-0.250123	0.382085	-0.319698	-0.404925	0.123795	-0.406067	-0.256419	0.036267	-0.348477	-0.205196	0.046947	-0.413416	-0.183459	0.036912	-0.413375	-0.255161	0.798533	-0.726207	-0.235861	0.739711	-0.729936	-0.173041	0.754716	-0.732282	-0.183213	0.814202	-0.728564	-0.214505	0.510349	-0.698471	-0.183032	0.502443	-0.598816	-0.318636	0.382930	-0.706670	-0.332814	0.345800	-0.698931	-0.273123	0.328254	-0.708264	-0.266703	0.371336	-0.715586	-0.397833	0.117237	-0.610301	-0.262218	0.038115	-0.704528	-0.200124	0.048013	-0.643081	-0.176488	0.036748	-0.652209	
633	3.1650	-0.311212	1.535192	-0.516695	-0.273227	1.539719	-0.694411	-0.280725	1.539143	-0.343501	-0.158506	1.502436	-0.520830	-0.165207	1.014764	-0.410174	-0.171533	1.019055	-0.642701	-0.227481	1.090858	-0.358164	-0.221233	1.083562	-0.685848	-0.342671	1.075922	-0.482705	-0.346209	1.075654	-0.551070	-0.345966	1.074741	-0.519493	-0.251020	0.839021	-0.322739	-0.236015	0.781929	-0.314950	-0.172260	0.796335	-0.319229	-0.180682	0.856386	-0.328216	-0.213864	0.520991	-0.344255	-0.193542	0.510007	-0.454867	-0.307383	0.403281	-0.315299	-0.321550	0.364329	-0.325509	-0.262568	0.350068	-0.325080	-0.252229	0.388730	-0.318958	-0.402107	0.128852	-0.404182	-0.255692	0.036721	-0.348111	-0.204839	0.047287	-0.412709	-0.183461	0.037005	-0.412876	-0.256071	0.805743	-0.725861	-0.237178	0.746773	-0.729462	-0.174268	0.761351	-0.732208	-0.184026	0.820917	-0.728671	-0.218374	0.516941	-0.698033	-0.186543	0.509251	-0.598284	-0.321012	0.388531	-0.706028	-0.334559	0.351125	-0.698579	-0.274738	0.334549	-0.708844	-0.269027	0.377803	-0.715720	-0.394974	0.122499	-0.611252	-0.261753	0.038570	-0.704562	-0.199731	0.048451	-0.643707	-0.176243	0.036849	-0.652370	
634	3.1700	-0.311832	1.541633	-0.516667	-0.273582	1.546607	-0.694010	-0.281402	1.545969	-0.343728	-0.159325	1.509422	-0.520654	-0.164270	1.021658	-0.410307	-0.170884	1.026254	-0.643094	-0.226442	1.098212	-0.358375	-0.220876	1.091367	-0.685808	-0.341676	1.083039	-0.482619	-0.345222	1.082794	-0.550952	-0.344914	1.081907	-0.519403	-0.251130	0.845991	-0.322835	-0.236615	0.788787	-0.315039	-0.172745	0.802651	-0.319340	-0.180647	0.862769	-0.328297	-0.217349	0.527528	-0.344403	-0.196759	0.516235	-0.455056	-0.309515	0.408975	-0.315105	-0.322952	0.369623	-0.324986	-0.263746	0.356449	-0.324086	-0.254093	0.395332	-0.318328	-0.399132	0.133948	-0.402322	-0.254912	0.037334	-0.347745	-0.204368	0.047763	-0.411836	-0.183300	0.037150	-0.412318	-0.256943	0.812885	-0.725536	-0.238427	0.753781	-0.729025	-0.175428	0.767962	-0.732085	-0.184804	0.827596	-0.728701	-0.222079	0.523442	-0.697632	-0.189969	0.515937	-0.597695	-0.323119	0.394056	-0.705392	-0.336016	0.356376	-0.698276	-0.276074	0.340816	-0.709441	-0.271084	0.384235	-0.715833	-0.391925	0.127787	-0.612223	-0.261279	0.039149	-0.704591	-0.199125	0.049110	-0.644389	-0.175928	0.036994	-0.652728	
635	3.1750	-0.312392	1.547897	-0.516614	-0.273898	1.553310	-0.693618	-0.282028	1.552596	-0.343934	-0.160037	1.516136	-0.520490	-0.163389	1.028307	-0.410409	-0.170240	1.033226	-0.643425	-0.225612	1.105405	-0.358563	-0.220641	1.098982	-0.685737	-0.340736	1.090020	-0.482554	-0.344289	1.089770	-0.550841	-0.343894	1.088910	-0.519319	-0.251234	0.852787	-0.322886	-0.237194	0.795468	-0.315144	-0.173226	0.808790	-0.319487	-0.180608	0.868985	-0.328399	-0.220656	0.533934	-0.344607	-0.199932	0.522370	-0.455379	-0.311391	0.414571	-0.315005	-0.324116	0.374868	-0.324524	-0.264680	0.362740	-0.323194	-0.255722	0.401836	-0.317814	-0.396088	0.139072	-0.400481	-0.254081	0.038223	-0.347325	-0.203691	0.048584	-0.410854	-0.182950	0.037436	-0.411684	-0.257770	0.819930	-0.725240	-0.239606	0.760705	-0.728634	-0.176527	0.774512	-0.731901	-0.185548	0.834210	-0.728649	-0.225613	0.529820	-0.697264	-0.193259	0.522407	-0.597109	-0.324960	0.399477	-0.704791	-0.337195	0.361525	-0.698041	-0.277142	0.347021	-0.710042	-0.272883	0.390595	-0.715918	-0.388780	0.133078	-0.613222	-0.260795	0.039940	-0.704526	-0.198322	0.049965	-0.645237	-0.175558	0.037252	-0.653466	
